<?xml version="1.0" encoding="UTF-8"?>
<svg width="128" height="128" viewBox="0 0 128 128" xmlns="http://www.w3.org/2000/svg">
  <!-- CARINA MissionLab Icon - Circuit/Chip concept -->
  <defs>
    <linearGradient id="missionlabGradient" x1="0%" y1="0%" x2="100%" y2="100%">
      <stop offset="0%" style="stop-color:#3DE8FF"/>
      <stop offset="100%" style="stop-color:#1FA2FF"/>
    </linearGradient>
  </defs>
  
  <!-- Background -->
  <circle cx="64" cy="64" r="60" fill="#050814"/>
  
  <!-- Central chip/processor -->
  <rect x="44" y="44" width="40" height="40" rx="4" 
        fill="none" 
        stroke="url(#missionlabGradient)" 
        stroke-width="3"/>
  
  <!-- Inner chip detail -->
  <rect x="52" y="52" width="24" height="24" rx="2" 
        fill="#3DE8FF" 
        fill-opacity="0.2"/>
  
  <!-- Connection pins - top -->
  <line x1="52" y1="44" x2="52" y2="28" stroke="#3DE8FF" stroke-width="2"/>
  <line x1="64" y1="44" x2="64" y2="28" stroke="#3DE8FF" stroke-width="2"/>
  <line x1="76" y1="44" x2="76" y2="28" stroke="#3DE8FF" stroke-width="2"/>
  
  <!-- Connection pins - bottom -->
  <line x1="52" y1="84" x2="52" y2="100" stroke="#3DE8FF" stroke-width="2"/>
  <line x1="64" y1="84" x2="64" y2="100" stroke="#3DE8FF" stroke-width="2"/>
  <line x1="76" y1="84" x2="76" y2="100" stroke="#3DE8FF" stroke-width="2"/>
  
  <!-- Connection pins - left -->
  <line x1="44" y1="52" x2="28" y2="52" stroke="#3DE8FF" stroke-width="2"/>
  <line x1="44" y1="64" x2="28" y2="64" stroke="#3DE8FF" stroke-width="2"/>
  <line x1="44" y1="76" x2="28" y2="76" stroke="#3DE8FF" stroke-width="2"/>
  
  <!-- Connection pins - right -->
  <line x1="84" y1="52" x2="100" y2="52" stroke="#3DE8FF" stroke-width="2"/>
  <line x1="84" y1="64" x2="100" y2="64" stroke="#3DE8FF" stroke-width="2"/>
  <line x1="84" y1="76" x2="100" y2="76" stroke="#3DE8FF" stroke-width="2"/>
  
  <!-- Pin endpoints -->
  <circle cx="52" cy="28" r="3" fill="#B14CFF"/>
  <circle cx="64" cy="28" r="3" fill="#B14CFF"/>
  <circle cx="76" cy="28" r="3" fill="#B14CFF"/>
  <circle cx="52" cy="100" r="3" fill="#B14CFF"/>
  <circle cx="64" cy="100" r="3" fill="#B14CFF"/>
  <circle cx="76" cy="100" r="3" fill="#B14CFF"/>
  <circle cx="28" cy="52" r="3" fill="#B14CFF"/>
  <circle cx="28" cy="64" r="3" fill="#B14CFF"/>
  <circle cx="28" cy="76" r="3" fill="#B14CFF"/>
  <circle cx="100" cy="52" r="3" fill="#B14CFF"/>
  <circle cx="100" cy="64" r="3" fill="#B14CFF"/>
  <circle cx="100" cy="76" r="3" fill="#B14CFF"/>
</svg>
